<svg xmlns="http://www.w3.org/2000/svg" width="16" height="16" viewBox="0 0 16 16" fill="context-fill #8e8e98" fill-opacity="context-fill-opacity">
<path d="M11 4.149V8.33l1.775 1.775c.3-.641.475-1.35.475-2.105a4.98 4.98 0 0 0-1.818-3.851zM2.067 1.183a.626.626 0 0 0-.885.885L4.115 5H2a2 2 0 0 0-2 2v2a2 2 0 0 0 2 2h2.117l3.128 3.65C7.848 15.353 9 14.927 9 14V9.884l3.317 3.317c-.273.232-.56.45-.873.636a.624.624 0 0 0-.218.856.62.62 0 0 0 .856.219 7.6 7.6 0 0 0 1.122-.823l.729.729a.626.626 0 0 0 .884-.886zM9 2c0-.926-1.152-1.352-1.755-.649L5.757 3.087 9 6.33z"/>
<path d="M11.341 2.169a6.77 6.77 0 0 1 3.409 5.864 6.73 6.73 0 0 1-.83 3.217l.912.912A8 8 0 0 0 16 8.033a8.02 8.02 0 0 0-4.04-6.95.625.625 0 0 0-.619 1.086"/>
</svg>
