<svg xmlns="http://www.w3.org/2000/svg" width="16" height="16" viewBox="0 0 16 16" fill="context-fill #8e8e98" fill-opacity="context-fill-opacity">
<path d="M7.245 1.35 4.117 5H2a2 2 0 0 0-2 2v2a2 2 0 0 0 2 2h2.117l3.128 3.65C7.848 15.353 9 14.927 9 14V2c0-.927-1.152-1.353-1.755-.65M11.764 15a.623.623 0 0 1-.32-1.162 6.78 6.78 0 0 0 3.306-5.805 6.77 6.77 0 0 0-3.409-5.864.624.624 0 1 1 .619-1.085A8.02 8.02 0 0 1 16 8.033a8.04 8.04 0 0 1-3.918 6.879c-.1.06-.21.088-.318.088"/>
<path d="M11.434 11.85A4.98 4.98 0 0 0 13.25 8a4.98 4.98 0 0 0-1.819-3.852H11v7.702z"/>
</svg>
