<svg xmlns="http://www.w3.org/2000/svg" width="192" height="128" viewBox="0 0 192 128"><g style="fill:#ffffff"><path opacity=".07" d="m144 70 10 32 38-64ZM154 102l-42 13 65 13h15Zm-42-14.8V115l32-45Zm0-100.1L96 45.5 144 34Zm0 127.9-16 58 48-11Zm-46.3 34 19.6-49 26.7 15Zm0-128.3 19.6-48.3L112-13ZM44.4 0l21.3 20.7L31.5 74ZM96 45.5 58.4 70l7.3-49.3ZM85.3 100 58.4 70 112 87.2Z"/><path opacity=".12" d="m177 0 15 38-48-4Zm47 74-32 54-38-26Zm-80-40L96 45.5 144 70Zm33 94 15 38-48-4ZM31.5 74 0 128l-37.9-26Zm34.2-53.3L112-12.9 96 45.5Zm0 128.3 46.3-34-16 58Zm-7.3-79L96 45.5l16 41.7ZM85.3 100 112 87.2V115Zm0 0-36.7 4 9.8-34Zm-40.9 28 4.2-24L0 128Zm21.3 21-17.1-45-4.2 24Zm0-128.3L48.6-24.4 44.4 0ZM44.4 0 0 38l31.5 36Z"/><g opacity=".17"><path d="m154 102 70-28-32-36ZM177 0l15 38 44-38Zm-33 34v36l48-32Zm0 0-32-46.9L177 0Zm-32 53.2L96 45.5 144 70Zm65 40.8 15 38 44-38Zm-33 34-32-47 65 13Zm-181.9-60 69.4-28L0 38ZM-14.8 0 0 38 44.4 0Zm0 128L0 166l44.4-38ZM144 70l-32 45 42-13Zm-85.6 0-26.9 4 34.2-53.3Z"/><path d="m31.5 74 17.1 30L0 128Z"/><path d="m58.4 70-9.8 34-17.1-30Zm-9.8 34 36.7-4-19.6 49Zm0-128.3 36.7-3.3-19.6 48.3Z"/></g></g></svg>
