<svg xmlns="http://www.w3.org/2000/svg" width="16" height="16" fill="context-fill #8e8e98" fill-opacity="context-fill-opacity" viewBox="0 0 16 16">
    <path d="M7.5.947C3.41.947 0 4.07 0 7.98 0 11.9 3.41 15 7.5 15c.58 0 1.14-.1 1.7-.2 1.1.7 2.5 1.4 4.1 1.1.7-.1 1-1 .5-1.5-.5-.6-.8-1-.8-1.7 1.2-1.3 2-2.96 2-4.72C15 4.07 11.6.947 7.5.947M7.52 2C10.6 2 14 5 14 8c0 1.48-1 3.2-2 4v2l-2-.6s-.81.4-2.56.6C4.36 14 1 11 1 8s3.44-6 6.52-6M4.48 8.49c-.34 0-.57.35-.45.67 0 0 .18.52.71.94.52.5 1.41.9 2.76.9s2.24-.4 2.8-.9c.5-.42.7-.94.7-.94.2-.63-.8-.95-1-.32 0 0 0 .23-.39.53-.35.3-.96.63-2.11.63s-1.76-.33-2.11-.63-.42-.53-.42-.53a.51.51 0 0 0-.49-.35"/>
</svg>
