<svg xmlns="http://www.w3.org/2000/svg" width="16" height="16" fill="context-fill #8e8e98" fill-opacity="context-fill-opacity" viewBox="0 0 16 16">
<path d="M3 2.2C2 2.2 1.2 3 1.2 4v8c0 1 .8 1.8 1.8 1.8h2.5c.9 0 .9 1.2 0 1.2H3c-1.66 0-3-1.3-3-3V4c0-1.66 1.34-3 3-3h10c1.7 0 3 1.34 3 3v2.5c0 .9-1.2.9-1.2 0V4c0-1-.8-1.8-1.8-1.8Z"/>
<path d="M10.5 8.5c2 0 2-3 0-3s-2 3 0 3M6 9.6c0-.41.29-.6.7-.6h7.6c.9 0 .9 1.2 0 1.2h-2.1v5.1c0 .9-1.2.9-1.2 0V13h-1v2.3c0 .9-1.2.9-1.2 0v-5.1H6.7c-.41 0-.7-.2-.7-.6"/>
</svg>
