<svg xmlns="http://www.w3.org/2000/svg" width="16" height="16" fill="context-fill #8e8e98" fill-opacity="context-fill-opacity" viewBox="0 0 16 16">
<path d="M5.5 1C4.29 1 3 2.2 3 3.33v9.37C3 13.8 4.29 15 5.5 15h5c1.3 0 2.5-1.2 2.5-2.3V3.33C13 2.2 11.8 1 10.5 1Zm0 1.17h5c.8 0 1.3.51 1.3 1.16v9.37c0 .7-.5 1.1-1.3 1.1h-5c-.7 0-1.25-.4-1.25-1.1V3.33c0-.65.55-1.16 1.25-1.16m.62 1.16a.625.583 0 0 0-.62.59.625.583 0 0 0 .62.58.625.583 0 0 0 .63-.58.625.583 0 0 0-.63-.59m0 8.17c-.35 0-.62.2-.62.6 0 .3.27.6.62.6H9.9c.3 0 .6-.3.6-.6 0-.4-.3-.6-.6-.6z"/>
</svg>
