<svg xmlns="http://www.w3.org/2000/svg" width="16" height="16" viewBox="0 0 16 16" fill="context-fill #f38525" fill-opacity="context-fill-opacity">
<path d="M8.012 0c-.745 0-1.38.397-1.717.994h-.011L.253 12.123a.4.4 0 0 1-.044.099 1.82 1.82 0 0 0 .11 1.888c.353.497 1.04.894 1.654.894H14.08c.664 0 1.32-.397 1.668-.993.265-.398.278-.895.182-1.391a1 1 0 0 0-.088-.398 1 1 0 0 0-.033-.1L9.733.995h-.006C9.377.398 8.69 0 8.012 0m0 .994c.352 0 .668.198.842.496l6.076 11.13a.9.9 0 0 1-.039.894.9.9 0 0 1-.81.497H1.974c-.353 0-.634-.2-.809-.398a1.1 1.1 0 0 1-.031-.994L7.165 1.49a1 1 0 0 1 .848-.496z"/>
<path d="M8 4c.554 0 1 .446 1 1v4c0 .554-.446 1-1 1s-1-.446-1-1V5c0-.554.446-1 1-1m1 8a1 1 0 0 1-1 1 1 1 0 0 1-1-1 1 1 0 0 1 1-1 1 1 0 0 1 1 1"/>
</svg>
