<svg xmlns="http://www.w3.org/2000/svg" width="16" height="16" viewBox="0 0 16 16" fill="context-fill #8e8e98" fill-opacity="context-fill-opacity">
<path d="M4 1c-1.108 0-2 .892-2 2v5.264a4.5 4.5 0 0 1 1-.23V3c0-.554.446-1 1-1h4v5h5v6c0 .554-.446 1-1 1H7.736a4.5 4.5 0 0 1-.496 1H12c1.108 0 2-.892 2-2V6L9 1zm5 1.414L12.586 6H9z"/>
<path d="M7 12.5A3.5 3.5 0 0 0 3.5 9 3.5 3.5 0 0 0 0 12.5 3.5 3.5 0 0 0 3.5 16 3.5 3.5 0 0 0 7 12.5m-1.086 0-2.5 2.5-.707-.707L4 13H1v-1h3l-1.293-1.293.707-.707z"/>
</svg>
