<svg xmlns="http://www.w3.org/2000/svg" width="16" height="16" viewBox="0 0 16 16" fill="context-fill #8e8e98" fill-opacity="context-fill-opacity">
<path d="M6.5 2a4.5 4.5 0 0 0 0 9 4.5 4.5 0 0 0 2.813-1l4 4 .687-.688-4-4A4.5 4.5 0 0 0 11 6.5 4.5 4.5 0 0 0 6.5 2m0 1A3.5 3.5 0 0 1 10 6.5c0 .197-.03.375-.063.563-.025.158-.047.317-.093.468q-.015.047-.031.094-.014.047-.032.094a3.4 3.4 0 0 1-.187.406q-.015.03-.031.063c-.081.147-.181.272-.282.406-.198.263-.424.49-.687.687-.134.1-.26.2-.406.281-.02.012-.043.02-.063.032l-.063.031a3.4 3.4 0 0 1-.437.188q-.046.016-.094.03c-.15.047-.31.07-.468.095-.182.028-.374.062-.563.062A3.5 3.5 0 0 1 3 6.5c0-.242.016-.49.063-.719A3.5 3.5 0 0 1 6.5 3M3 12a1 1 0 1 0 0 2 1 1 0 0 0 0-2m3 0a1 1 0 1 0 0 2 1 1 0 0 0 0-2m3 0a1 1 0 1 0 0 2 1 1 0 0 0 0-2"/>
</svg>
