<svg xmlns="http://www.w3.org/2000/svg" width="16" height="16" viewBox="0 0 16 16" fill="context-fill #8e8e98" fill-opacity="context-fill-opacity">
<path d="M6 0a2 2 0 0 0-2 2v.5a.5.5 0 0 0 1 0V2a1 1 0 0 1 1-1h.5a.5.5 0 0 0 0-1zm2.5 0a.5.5 0 0 0 0 1h3a.5.5 0 0 0 0-1zm5 0a.5.5 0 0 0 0 1h.5a1 1 0 0 1 1 1v.5a.5.5 0 0 0 1 0V2a2 2 0 0 0-2-2zM2 4a2 2 0 0 0-2 2v6.5A3.5 3.5 0 0 0 3.5 16H10a2 2 0 0 0 2-2v-1h-1v1a1 1 0 0 1-1 1H3.5A2.5 2.5 0 0 1 1 12.5V6a1 1 0 0 1 1-1h1V4zm2.5 0a.5.5 0 0 0-.5.5v3a.5.5 0 0 0 1 0v-3a.5.5 0 0 0-.5-.5m11 0a.5.5 0 0 0-.5.5v3a.5.5 0 0 0 1 0v-3a.5.5 0 0 0-.5-.5m-11 5a.5.5 0 0 0-.5.5v.5a2 2 0 0 0 2 2h.5a.5.5 0 0 0 0-1H6a1 1 0 0 1-1-1v-.5a.5.5 0 0 0-.5-.5m11 0a.5.5 0 0 0-.5.5v.5a1 1 0 0 1-1 1h-.5a.5.5 0 0 0 0 1h.5a2 2 0 0 0 2-2v-.5a.5.5 0 0 0-.5-.5m-7 2a.5.5 0 0 0 0 1h3a.5.5 0 0 0 0-1z"/>
</svg>
