<svg xmlns="http://www.w3.org/2000/svg" width="16" height="16" viewBox="0 0 16 16">
<path d="M12.9 15.3H3.2c-.88 0-1.6-.6-1.6-1.4v-2.7c0-.4.33-.6.74-.6h1.72c.7 0 1.25-.64 1.25-1.2 0-.64-.55-1.15-1.25-1.15H2.34c-.41 0-.74-.32-.74-.68V5.84c0-.81.72-1.48 1.6-1.48h2.36V3.13c0-1.21.93-2.297 2.21-2.419C9.23.57 10.5 1.62 10.5 2.98v1.38h2.4c.9 0 1.5.67 1.5 1.48v8.06c0 .8-.6 1.4-1.5 1.4" style="fill:none;stroke:context-fill #8e8e98;stroke-opacity:context-fill-opacity;stroke-width:1.2;stroke-linecap:round;stroke-linejoin:round"/>
</svg>
