<svg xmlns="http://www.w3.org/2000/svg" width="16" height="16" viewBox="0 0 16 16" fill="context-fill #8e8e98" fill-opacity="context-fill-opacity">
<path d="M13.6 7.99c-.8 0-.8.89-1.5.89a.669.671 0 0 1-.7-.67V5.38a.867.87 0 0 0-.8-.88H7.76a.669.671 0 0 1-.66-.66c0-.65.88-.68.88-1.53C7.98 1.56 7.19 1 6.22 1c-.96 0-1.74.56-1.74 1.31 0 .85.87.88.87 1.53a.669.671 0 0 1-.65.66H1.87a.867.87 0 0 0-.87.87v1.97a.669.671 0 0 0 .66.65c.65 0 .68-.87 1.52-.87.76 0 1.31.79 1.31 1.76 0 .98-.55 1.72-1.31 1.72-.84 0-.87-.85-1.52-.85a.669.671 0 0 0-.66.65v3.8a.867.87 0 0 0 .87.8h2.84a.669.671 0 0 0 .65-.6c0-.7-.87-.8-.87-1.6 0-.7.78-1.3 1.74-1.3s1.75.6 1.75 1.3c0 .8-.88.9-.88 1.6a.669.671 0 0 0 .66.6h2.84a.867.87 0 0 0 .8-.8v-2.9a.669.671 0 0 1 .7-.7c.7 0 .7.9 1.5.9s1.4-.8 1.4-1.75c0-.96-.6-1.76-1.4-1.76"/>
</svg>
