<svg xmlns="http://www.w3.org/2000/svg" width="16" height="16" viewBox="0 0 16 16" fill="context-fill #8e8e98" fill-opacity="context-fill-opacity">
<g clip-path="url(#a)">
<path d="M4 2a.5.5 0 0 0-.5.5H2a2 2 0 0 1 2-2h8a2 2 0 0 1 2 2h-1.5A.5.5 0 0 0 12 2zm2 6h4v1.5H6z"/>
<path fill-rule="evenodd" d="M2 4a2 2 0 0 0-2 2v8a2 2 0 0 0 2 2h12a2 2 0 0 0 2-2V6a2 2 0 0 0-2-2zm-.5 2a.5.5 0 0 1 .5-.5h12a.5.5 0 0 1 .5.5v8a.5.5 0 0 1-.5.5H2a.5.5 0 0 1-.5-.5z" clip-rule="evenodd"/>
</g>
<defs>
<clipPath id="a">
<path d="M0 0h16v16H0z"/>
</clipPath>
</defs>
</svg>
