<svg xmlns="http://www.w3.org/2000/svg" width="16" height="16" viewBox="0 0 16 16" fill="context-fill #8e8e98" fill-opacity="context-fill-opacity">
<path d="M2 2C.892 2 0 2.892 0 4v9c0 1.108.892 2 2 2h7.678a4.5 4.5 0 0 1-.916-1H2c-.554 0-1-.446-1-1V7h14v.76a4.5 4.5 0 0 1 1 .914V5c0-1.108-.892-2-2-2H6.371c-.58-.023-.605.077-1.039-.357S4.719 2 4 2zm0 1h2c.311 0 .52 0 .998.47.479.472.639.53 1 .53H14c.554 0 1 .446 1 1v1H1V4c0-.554.446-1 1-1"/>
<path d="m12.8 8.2.9 1.8 2 .4c.3.1.4.3.1.6l-1.4 1.4.5 2.1c.1.4-.3.6-.6.4l-1.8-.9-1.8.9c-.4.2-.6 0-.5-.4l.4-1.9L9.15 11c-.25-.3-.15-.5.15-.6l2-.3.9-1.9q.3-.45.6 0"/>
</svg>
