<svg xmlns="http://www.w3.org/2000/svg" width="16" height="16" viewBox="0 0 16 16" fill="context-fill #8e8e98" fill-opacity="context-fill-opacity">
<path d="M2 5h12v1H2zm0 5h12v1H2zm9.02 2.69C10.42 13.89 9.42 15 8 15c-1.41 0-2.42-1.12-3.02-2.31A10.7 10.7 0 0 1 4 8c0-1.78.36-3.44.98-4.69C5.58 2.11 6.58 1 8 1c1.41 0 2.42 1.12 3.02 2.31.62 1.25.98 2.91.98 4.69s-.36 3.44-.98 4.69M8 14c1.66 0 3-2.69 3-6S9.66 2 8 2 5 4.69 5 8s1.34 6 3 6m8-6A8 8 0 1 1 0 8a8 8 0 0 1 16 0m-8 6A6 6 0 1 0 8 2a6 6 0 0 0 0 12"/>
</svg>
