<svg xmlns="http://www.w3.org/2000/svg" width="16" height="16" viewBox="0 0 16 16" fill="context-fill #8e8e98" fill-opacity="context-fill-opacity">
<path d="M8 0a8 8 0 1 0 0 16A8 8 0 0 0 8 0m0 1a7 7 0 1 1 0 14A7 7 0 0 1 8 1m0 2.5A2.5 2.5 0 0 0 5.5 6a.5.5 0 0 0 1 0 1.5 1.5 0 1 1 2.525 1.094l-.117.102-.248.183a3 3 0 0 0-.355.323C7.792 8.247 7.5 8.989 7.5 10a.5.5 0 0 0 1 0c0-.758.197-1.253.535-1.613q.073-.08.156-.15l.086-.071.22-.164.153-.125A2.5 2.5 0 0 0 8 3.5m0 8A.75.75 0 1 0 8 13a.75.75 0 0 0 0-1.5"/>
</svg>
