<svg xmlns="http://www.w3.org/2000/svg" width="16" height="16" viewBox="0 0 16 16" fill="context-fill #8e8e98" fill-opacity="context-fill-opacity">
<path d="M3 4v1h1V4zm2 0v1h1V4zm2 0v1h1V4zm2 0v1h1V4zm2 0v1h2V4zM3 6v1h2V6zm3 0v1h1V6zm2 0v1h1V6zm2 0v1h3V6zM3 8v1h1V8zm2 0v1h6V8zm7 0v1h1V8z"/>
<path d="M3 1C1.338 1 0 2.338 0 4v5a2.983 2.983 0 0 0 2.73 2.973L5 15v-3h8c1.662 0 3-1.338 3-3V4c0-1.662-1.338-3-3-3zm0 1h10c1.108 0 2 .892 2 2v5c0 1.108-.892 2-2 2H3c-1.108 0-2-.892-2-2V4c0-1.108.892-2 2-2"/>
</svg>
