<svg xmlns="http://www.w3.org/2000/svg" width="16" height="16" viewBox="0 0 16 16" fill="context-fill #8e8e98" fill-opacity="context-fill-opacity">
<path d="M7 1a3.6 3.5 0 1 0 0 7 3.6 3.5 0 0 0 0-7m0 1.16a2.4 2.34 0 1 1 0 4.68 2.4 2.34 0 0 1 0-4.68m0 7c-3.32 0-6 2.44-6 5.34v.5h12a4.79 4.65 0 0 0 0-.5c0-2.9-2.7-5.34-6-5.34m0 1.24c2.38 0 4.4 1.5 4.8 3.4H2.25c.34-1.9 2.36-3.4 4.75-3.4"/>
<path d="M14 2a1 1 0 0 0-1 1 1 1 0 0 0 1 1 1 1 0 0 0 1-1 1 1 0 0 0-1-1m0 3a1 1 0 0 0-1 1 1 1 0 0 0 1 1 1 1 0 0 0 1-1 1 1 0 0 0-1-1m0 3a1 1 0 0 0-1 1 1 1 0 0 0 1 1 1 1 0 0 0 1-1 1 1 0 0 0-1-1" style="fill:context-stroke #f38525"/>
</svg>
