<svg xmlns="http://www.w3.org/2000/svg" width="16" height="16" viewBox="0 0 16 16" fill="context-fill #8e8e98" fill-opacity="context-fill-opacity">
<path d="M15 10h-4a1 1 0 0 0-1 1v3a1 1 0 0 0 1 1h4a1 1 0 0 0 1-1v-3a1 1 0 0 0-1-1"/>
<path d="M8.125 15a.625.625 0 0 0 0-1.25H1.85l-.6-.6v-9.3l.6-.6h10.3l.6.6v4.275a.625.625 0 0 0 1.25 0V4a2 2 0 0 0-2-2H2a2 2 0 0 0-2 2v9a2 2 0 0 0 2 2z"/>
<path d="m6.714 7.83.75-.75A.314.314 0 0 1 8 7.303v2.509L7.811 10H5.302a.314.314 0 0 1-.222-.536l.75-.75-2.652-2.652a.62.62 0 0 1-.11-.718.5.5 0 0 1 .276-.276.62.62 0 0 1 .718.11z"/>
</svg>
