<svg xmlns="http://www.w3.org/2000/svg" width="16" height="16" viewBox="0 0 16 16" fill="context-fill #9b59b6" fill-opacity="context-fill-opacity">
<path d="M15.931 5.479c-1.525-2.001-4.517-2.257-6.381-.545l-1.043.958h-1.02l-1.042-.958C4.581 3.223 1.589 3.478.064 5.479c-.197.78.108 3.66.28 4.113.347 1.83 1.842 3.206 3.635 3.206.895 0 1.706-.357 2.347-.929l.391-.334a1.936 1.936 0 0 1 2.511-.021l.586.486v-.003c.617.497 1.375.801 2.203.801 1.792 0 3.288-1.376 3.635-3.206.172-.453.488-3.321.279-4.113M6.232 8.452c-.427.482-1.088.792-1.832.792s-1.405-.31-1.832-.792a.69.69 0 0 1 0-.905c.427-.482 1.088-.792 1.832-.792s1.405.31 1.832.792a.69.69 0 0 1 0 .905m7.2 0c-.427.482-1.088.792-1.832.792s-1.405-.31-1.832-.792a.69.69 0 0 1 0-.905c.427-.482 1.088-.792 1.832-.792s1.405.31 1.832.792a.69.69 0 0 1 0 .905"/>
</svg>
