<svg xmlns="http://www.w3.org/2000/svg" width="16" height="16" viewBox="0 0 16 16" fill="context-fill #8e8e98" fill-opacity="context-fill-opacity">
<path d="M2 4a3 3 0 0 1 3-3h4.17a3 3 0 0 1 2.12.88l1.83 1.83A3 3 0 0 1 14 5.83V12a3 3 0 0 1-3 3H5a3 3 0 0 1-3-3zm3-1a1 1 0 0 0-1 1v8a1 1 0 0 0 1 1h6a1 1 0 0 0 1-1V5.83a1 1 0 0 0-.3-.7L9.89 3.28a1 1 0 0 0-.7-.29H5z"/>
<path d="M6 10.5c0-.28.22-.5.5-.5h3a.5.5 0 0 1 0 1h-3a.5.5 0 0 1-.5-.5m0-2c0-.28.22-.5.5-.5h3a.5.5 0 0 1 0 1h-3a.5.5 0 0 1-.5-.5m0-2c0-.28.22-.5.5-.5h1a.5.5 0 0 1 0 1h-1a.5.5 0 0 1-.5-.5m3-2V3h1v1.5c0 .28.22.5.5.5H12v1h-1.5A1.5 1.5 0 0 1 9 4.5"/>
</svg>
