<svg xmlns="http://www.w3.org/2000/svg" width="16" height="16" viewBox="0 0 16 16" fill="context-fill #8e8e98" fill-opacity="context-fill-opacity">
<path d="M8 0a8 8 0 0 0-1.672.174.47.47 0 0 0-.367.377L5.617 2.44a.942.942 0 0 1-1.242.717L2.57 2.512a.47.47 0 0 0-.508.127A8 8 0 0 0 .386 5.537a.47.47 0 0 0 .143.504l1.463 1.242a.94.94 0 0 1 0 1.433L.529 9.958a.47.47 0 0 0-.143.504 8 8 0 0 0 1.676 2.898.47.47 0 0 0 .508.127l1.805-.644a.94.94 0 0 1 1.242.717l.344 1.889c.034.187.18.337.367.377A8 8 0 0 0 8 15.999q.852 0 1.672-.173a.47.47 0 0 0 .366-.377l.345-1.89a.942.942 0 0 1 1.242-.717l1.805.645a.47.47 0 0 0 .508-.127 8 8 0 0 0 1.676-2.898.47.47 0 0 0-.143-.504l-1.463-1.242a.94.94 0 0 1 0-1.433l1.463-1.242a.47.47 0 0 0 .143-.504 8 8 0 0 0-1.676-2.898.47.47 0 0 0-.508-.127l-1.805.645a.94.94 0 0 1-1.242-.717L10.037.55a.47.47 0 0 0-.365-.376A8 8 0 0 0 8 0m0 .941q.593 0 1.17.096l.285 1.572a1.88 1.88 0 0 0 2.486 1.434l1.502-.537c.5.605.897 1.289 1.172 2.025l-1.219 1.033a1.883 1.883 0 0 0 0 2.87l1.22 1.034a7 7 0 0 1-1.173 2.025l-1.502-.537a1.882 1.882 0 0 0-2.486 1.433l-.285 1.572a7.1 7.1 0 0 1-2.342 0l-.283-1.572a1.88 1.88 0 0 0-2.486-1.433l-1.502.537a7 7 0 0 1-1.172-2.025l1.219-1.033a1.883 1.883 0 0 0 0-2.871L1.384 5.53a7 7 0 0 1 1.173-2.025l1.502.537a1.882 1.882 0 0 0 2.486-1.434l.283-1.572A7 7 0 0 1 8 .941m0 4.56A2.5 2.5 0 1 0 8 10.5a2.5 2.5 0 0 0 0-5zm0 1a1.5 1.5 0 1 1 0 3 1.5 1.5 0 0 1 0-3"/>
</svg>
