<svg xmlns="http://www.w3.org/2000/svg" width="16" height="16" viewBox="0 0 16 16" fill="context-fill #8e8e98" fill-opacity="context-fill-opacity">
<path d="M7.42 2a5.14 4.5 0 0 0-5.14 4.5c0 .22 0 .44.11.66A3.42 3 0 0 0 0 10a3.42 3 0 0 0 3.42 3h8.68A4 3.5 0 0 0 16 9.5c-.4-1.18-1.8-2.68-3.4-3.32-.1 0 0-.13 0-.14A5.14 4.5 0 0 0 7.42 2m0 1a4 3.5 0 0 1 3.98 3.5 4 3.5 0 0 1 0 .56 2.86 2.5 0 0 1 .7-.1 2.88 2.52 0 1 1 0 5.04H3.42a2.28 2 0 1 1 .42-3.97 4 3.5 0 0 1-.42-1.53 4 3.5 0 0 1 4-3.5"/>
<path d="M11 6c-2.216 0-4 1.784-4 4s1.784 4 4 4 4-1.784 4-4-1.784-4-4-4" style="fill:context-stroke #178bff"/>
<path d="M11.05 7.004a3 3 0 0 0-2.171.875 3 3 0 0 0-.324 3.86l.724-.725a2 2 0 0 1 .307-2.428 2 2 0 0 1 2.43-.309l.718-.718a3 3 0 0 0-1.683-.555zm2.395 1.258-.724.724a2 2 0 0 1-.307 2.428 2 2 0 0 1-2.43.309l-.718.718a3 3 0 0 0 3.855-.32 3 3 0 0 0 .324-3.86z" style="fill:#fff"/>
</svg>
