<svg xmlns="http://www.w3.org/2000/svg" width="16" height="16" viewBox="0 0 16 16" fill="context-fill #8e8e98" fill-opacity="context-fill-opacity">
<path d="M7.42 2a5.14 4.5 0 0 0-5.14 4.5c0 .22 0 .44.11.66A3.42 3 0 0 0 0 10a3.42 3 0 0 0 3.42 3h8.68A4 3.5 0 0 0 16 9.5c-.4-1.18-1.8-2.68-3.4-3.32-.1 0 0-.13 0-.14A5.14 4.5 0 0 0 7.42 2m0 1a4 3.5 0 0 1 3.98 3.5 4 3.5 0 0 1 0 .56 2.86 2.5 0 0 1 .7-.1 2.88 2.52 0 1 1 0 5.04H3.42a2.28 2 0 1 1 .42-3.97 4 3.5 0 0 1-.42-1.53 4 3.5 0 0 1 4-3.5"/>
<path d="M11 6a4 4 0 0 0-4 4 4 4 0 0 0 4 4 4 4 0 0 0 4-4 4 4 0 0 0-4-4"/>
<path d="M9 9v2h1V9zm3 0v2h1V9z" style="fill:#fff"/>
</svg>
