<svg xmlns="http://www.w3.org/2000/svg" width="16" height="16" viewBox="0 0 16 16" fill="context-fill #8e8e98" fill-opacity="context-fill-opacity">
<path d="M7.5 2A4.5 4.5 0 0 0 3 6.5q.003.331.053.656A3 3 0 0 0 1 10a3 3 0 0 0 3 3h7.5c1.933 0 3.322-1.477 3.322-3.41-.343-1.177-1.384-2.772-2.84-3.406-.03-.013.019-.137-.011-.149A4.5 4.5 0 0 0 7.5 2m0 1A3.5 3.5 0 0 1 11 6.5a3.5 3.5 0 0 1-.05.564A2.5 2.5 0 0 1 11.5 7a2.5 2.5 0 1 1 0 5H4a2 2 0 1 1 .357-3.967A3.5 3.5 0 0 1 4 6.5 3.5 3.5 0 0 1 7.5 3"/>
<path d="M7 6v4a4 4 0 0 0 4 4 4 4 0 0 0 4-4V6z" style="fill:context-stroke #27ae81"/>
<path d="M10.5 7v4.086L8.707 9.293 8 10l3 3 3-3-.707-.707-1.793 1.793V7z" style="fill:#fff"/>
</svg>
