<svg xmlns="http://www.w3.org/2000/svg" width="16" height="16" viewBox="0 0 16 16" fill="context-fill #8e8e98" fill-opacity="context-fill-opacity">
<path d="M3 1c-1.108 0-2 .892-2 2v10c0 1.108.892 2 2 2h10c1.108 0 2-.892 2-2V3c0-1.108-.892-2-2-2zm0 1h10c.554 0 1 .446 1 1v10c0 .554-.446 1-1 1H3c-.554 0-1-.446-1-1V3c0-.554.446-1 1-1"/>
<path d="M8 3c-.277 0-.5.223-.5.5v.531a4 4 0 0 0-1.05.282l-.266-.46a.5.5 0 1 0-.868.5l.266.46a4 4 0 0 0-.768.769l-.46-.266a.5.5 0 1 0-.5.868l.458.265a4 4 0 0 0-.28 1.051H3.5a.499.499 0 1 0 0 1h.531a4 4 0 0 0 .281 1.05l-.458.266a.5.5 0 1 0 .5.868l.46-.266a4 4 0 0 0 .768.77l-.266.459a.5.5 0 1 0 .868.5l.265-.461a4 4 0 0 0 1.051.283v.531a.499.499 0 1 0 1 0v-.531a4 4 0 0 0 1.05-.281l.266.458a.5.5 0 1 0 .868-.5l-.266-.46a4 4 0 0 0 .77-.768l.458.266a.5.5 0 1 0 .5-.868l-.46-.265a4 4 0 0 0 .283-1.051h.531a.499.499 0 1 0 0-1h-.531a4 4 0 0 0-.281-1.05l.458-.266a.5.5 0 1 0-.5-.868l-.46.266a4 4 0 0 0-.768-.77l.266-.459a.5.5 0 1 0-.868-.5l-.265.461A4 4 0 0 0 8.5 4.031V3.5c0-.277-.223-.5-.5-.5m-.053 2H8a3 3 0 0 1 1.5.402A3 3 0 0 1 10.598 6.5a3 3 0 0 1 .129.252l-2.02.541A1 1 0 0 0 8 7a1 1 0 0 0-.258.035l-1.48-1.48a3 3 0 0 1 .238-.153A3 3 0 0 1 7.947 5M5.555 6.262 7.033 7.74A1 1 0 0 0 7 8a1 1 0 0 0 .293.707l-.543 2.021a3 3 0 0 1-.25-.13A3 3 0 0 1 5.402 9.5 3 3 0 0 1 5 8a3 3 0 0 1 .402-1.5 3 3 0 0 1 .153-.238m5.431 1.457a3 3 0 0 1 .014.28 3 3 0 0 1-.402 1.501A3 3 0 0 1 9.5 10.598 3 3 0 0 1 8 11a3 3 0 0 1-.281-.014l.539-2.021a1 1 0 0 0 .709-.707l2.02-.54z"/>
</svg>
