<svg xmlns="http://www.w3.org/2000/svg" width="16" height="16" viewBox="0 0 16 16" fill="context-fill #8e8e98" fill-opacity="context-fill-opacity">
<path d="M8 0a8 8 0 1 0 0 16A8 8 0 0 0 8 0m0 1a7 7 0 1 1 0 14A7 7 0 0 1 8 1m.09 1a5.98 5.98 0 0 0-4.332 1.758 6 6 0 0 0 0 8.484.5.5 0 1 0 .707-.707 5 5 0 0 1 5.354-8.193.5.5 0 1 0 .363-.932A6 6 0 0 0 8.09 2m3.68 1.699a.5.5 0 0 0-.32.11l-.176.138-.467.373c-.388.31-.91.727-1.443 1.158S8.286 6.355 7.85 6.72c-.218.182-.41.346-.56.479a4 4 0 0 0-.342.328 1.5 1.5 0 1 0 2.28 1.947c.073-.085.17-.231.27-.389.108-.17.239-.385.385-.629.292-.487.646-1.096.988-1.689.343-.594.675-1.176.92-1.607l.295-.52.11-.195a.5.5 0 0 0-.426-.746M13.139 5.5a.5.5 0 0 0-.48.682 5 5 0 0 1-1.124 5.354.5.5 0 0 0 .707.707 6 6 0 0 0 1.35-6.424.5.5 0 0 0-.453-.319"/>
</svg>
