<svg xmlns="http://www.w3.org/2000/svg" width="16" height="16" viewBox="0 0 16 16" fill="context-fill #8e8e98" fill-opacity="context-fill-opacity">
<path d="M15.37 15H17l-3.63-8.54a.75.75 0 0 0-.69-.46h-.82c-.3 0-.58.18-.7.46L9.32 10.8l-.01-.01a10.8 10.8 0 0 1-3.27-2.2 12.4 12.4 0 0 0 2.54-4.18L9.08 3H10V1.5H5.75V0h-1.5v1.5H0V3h7.5l-.33.91c-.47 1.31-1.2 2.52-2.13 3.56-.7-.9-1.25-1.9-1.63-2.97H1.8l.18.48a12.4 12.4 0 0 0 1.97 3.56c-.9.75-1.89 1.35-2.96 1.78v1.58a12.3 12.3 0 0 0 3.96-2.26 12.3 12.3 0 0 0 3.77 2.54L7.53 15h1.64l1.06-2.5h4.08zm-4.5-4 1.4-3.3 1.4 3.3z"/>
</svg>
