<svg xmlns="http://www.w3.org/2000/svg" width="16" height="16" viewBox="0 0 16 16" fill="context-fill #8e8e98" fill-opacity="context-fill-opacity">
<path d="M8 2a3 3 0 1 0 0 6 3 3 0 0 0 0-6m0 7a5 4.5 0 0 0-5 4.5 5 4.5 0 0 0 .033.5h9.93a5 4.5 0 0 0 .037-.5A5 4.5 0 0 0 8 9m0 1a4 3.5 0 0 1 3.955 3h-7.91A4 3.5 0 0 1 8 10"/>
<path d="M6.5 4.5A.5.5 0 0 0 6 5a.5.5 0 0 0 .5.5A.5.5 0 0 0 7 5a.5.5 0 0 0-.5-.5m1.5 0a.5.5 0 0 0-.5.5.5.5 0 0 0 .5.5.5.5 0 0 0 .5-.5.5.5 0 0 0-.5-.5m1.5 0A.5.5 0 0 0 9 5a.5.5 0 0 0 .5.5.5.5 0 0 0 .5-.5.5.5 0 0 0-.5-.5"/>
</svg>
