<svg xmlns="http://www.w3.org/2000/svg" width="16" height="16" fill="context-fill #8e8e98" fill-opacity="context-fill-opacity" viewBox="0 0 16 16">
<path d="M8.02 0c1.16.002 2.28.259 3.38.752C15 2.46 16.9 6.63 15.6 10.5c-1.2 3.8-5.1 6.1-9.11 5.4-3.96-.8-6.738-4.4-6.473-8.43.018-.28.306-.57.583-.57.3 0 .6.32.6.6 0 3.5 2.03 6.5 5.5 7.2 3.5.7 6.6-1.1 7.7-4.5 1.1-3.36-.2-6.81-3.4-8.3-3.09-1.443-6.36-.8-8.3 2h2.8c.28 0 .5.32.5.6s-.22.6-.5.6h-4c-.28 0-.6-.32-.6-.6v-4c0-.276.32-.5.6-.5s.6.224.6.5v2.1C3.62.877 5.72-.002 8.02 0"/>
<path d="M6.9 4.5v4c0 .25.33.6.6.6h3c.8 0 .8-1.2 0-1.2H8.1V4.5c0-.8-1.2-.8-1.2 0"/>
</svg>
