<svg xmlns="http://www.w3.org/2000/svg" width="16" height="16" viewBox="0 0 16 16" fill="context-fill #8e8e98" fill-opacity="context-fill-opacity">
<path d="M6 4c-1.108 0-2 .892-2 2v4c0 1.108.892 2 2 2h4c1.108 0 2-.892 2-2V6c0-1.108-.892-2-2-2zm0 1h4c.554 0 1 .446 1 1v4c0 .554-.446 1-1 1H6c-.554 0-1-.446-1-1V6c0-.554.446-1 1-1M3 1c-1.108 0-2 .892-2 2v2h1V3c0-.554.446-1 1-1h2V1zm8 0v1h2c.554 0 1 .446 1 1v2h1V3c0-1.108-.892-2-2-2zM1 11v2c0 1.108.892 2 2 2h2v-1H3c-.554 0-1-.446-1-1v-2zm13 0v2c0 .554-.446 1-1 1h-2v1h2c1.108 0 2-.892 2-2v-2z"/>
</svg>
