<svg xmlns="http://www.w3.org/2000/svg" width="16" height="16" viewBox="0 0 16 16" fill="context-fill #8e8e98" fill-opacity="context-fill-opacity">
<path d="M7.998 2.04C4.228 2.043.928 4.405-.01 7.77a1.042.96 0 0 0 0 .478c.946 3.356 4.246 5.71 8.01 5.713a1.042.96 0 0 0 .002 0c3.77-.005 7.07-2.367 8.008-5.73a1.042.96 0 0 0 0-.48C15.064 4.393 11.764 2.04 8 2.038a1.042.96 0 0 0-.002 0zM8 3c3.295.002 6.172 2.054 7 4.992-.82 2.945-3.7 5.004-7 5.008-3.295-.002-6.172-2.054-7-4.992C1.82 5.063 4.7 3.004 8 3"/>
<path d="M8 5a3 3 0 0 0-3 3 3 3 0 0 0 3 3 3 3 0 0 0 3-3 3 3 0 0 0-3-3m0 1a2 2 0 0 1 2 2 2 2 0 0 1-2 2 2 2 0 0 1-2-2 2 2 0 0 1 2-2"/>
</svg>
