<svg xmlns="http://www.w3.org/2000/svg" width="16" height="16" viewBox="0 0 16 16" fill="context-fill #8e8e98" fill-opacity="context-fill-opacity">
<path d="M8.02 0a7.97 7.97 0 0 1 3.365.752 8.008 8.008 0 0 1 4.227 9.715 8.006 8.006 0 0 1-9.12 5.389A8.005 8.005 0 0 1 .017 7.47a.5.5 0 0 1 .531-.467.5.5 0 0 1 .467.533 6.994 6.994 0 0 0 5.664 7.338 6.994 6.994 0 0 0 7.98-4.717 6.993 6.993 0 0 0-3.696-8.5A6.996 6.996 0 0 0 2.255 4h3.246a.5.5 0 0 1 .5.5.5.5 0 0 1-.5.5h-4a.5.5 0 0 1-.5-.5v-4a.5.5 0 0 1 .5-.5.5.5 0 0 1 .5.5v2.215A8.014 8.014 0 0 1 8.021 0z"/>
<path d="M 7.5,4 C 7.23,4 7,4.2 7,4.45 L 7,8.5 C 7,8.75 7.23,9 7.5,9 h 3 C 10.8,9 11,8.75 11,8.5 11,8.25 10.8,8 10.5,8 H 8 L 8,4.45 C 8,4.2 7.77,4 7.5,4 Z"/>
</svg>
