<svg xmlns="http://www.w3.org/2000/svg" width="16" height="16" fill="context-fill #8e8e98" fill-opacity="context-fill-opacity" viewBox="0 0 16 16">
<path d="M3 1c-1.108 0-2 .892-2 2v10c0 1.108.892 2 2 2h5.762a4.5 4.5 0 0 1-.498-1H3c-.554 0-1-.446-1-1V5c0-.554.446-1 1-1h10c.554 0 1 .446 1 1v3.264a4.5 4.5 0 0 1 1 .496V3c0-1.108-.892-2-2-2z"/>
<path fill="context-stroke #e31b5d" d="M15 10a3.5 3.5 0 1 0-5 5 3.5 3.5 0 0 0 5-5m-1.1.4.7.7-1.4 1.4 1.4 1.4-.7.7-1.4-1.4-1.4 1.4-.7-.7 1.4-1.4-1.4-1.4.7-.7 1.4 1.4z"/>
</svg>
