<svg xmlns="http://www.w3.org/2000/svg" width="16" height="16" viewBox="0 0 16 16" fill="context-fill #8e8e98" fill-opacity="context-fill-opacity">
<path d="M6 4c-1.108 0-2 .892-2 2v4c0 1.108.892 2 2 2h4c1.108 0 2-.892 2-2V6c0-1.108-.892-2-2-2zm0 1h4c.554 0 1 .446 1 1v4c0 .554-.446 1-1 1H6c-.554 0-1-.446-1-1V6c0-.554.446-1 1-1M3 1c-1.108 0-2 .892-2 2v1h1V3c0-.554.446-1 1-1h1V1zm9 0v1h1c.554 0 1 .446 1 1v1h1V3c0-1.108-.896-2.098-2-2zM1 12v1c0 1.108.899 1.879 2 2h1v-1H3c-.554 0-1-.446-1-1v-1zm13 0v1c0 .554-.446 1-1 1h-1v1h1c1.108 0 2-.892 2-2v-1z"/>
</svg>
