<?xml version="1.0" encoding="UTF-8"?>
<svg xmlns="http://www.w3.org/2000/svg" height="48" width="48" viewBox="0 0 48 48">
  <g>
    <path d="M 2.438,0 C 1.087,0 0,1.088 0,2.438 V 45.56 C 0,46.91 1.087,48 2.438,48 H 45.56 C 46.91,48 48,46.91 48,45.56 V 2.438 C 48,1.088 46.91,0 45.56,0 Z" style="fill:#15a163;fill-opacity:1;" />
    <path style="opacity:0.25;fill:#000000;" d="M 23.8,3 C 21,3 18.6,3.61 16,4.65 13.4,5.61 11.3,7.09 9.37,9 7.44,10.9 5.68,13.6 4.62,16 3.56,18.5 3,20.8 3,23.5 3,26.4 3.48,29.2 4.54,31.7 5.5,34 8,38 8,38 L 18,48 H 45.5 C 46.9,48 48,46.9 48,45.6 V 17 L 39,8 C 37,6.65 35.2,5.96 33.2,5.01 30.3,3.67 27.2,3 23.8,3 Z"/>
    <path style="fill:#ffffff;" d="M 24.5,3 C 21.7,3 18.9,3.59 16.2,4.66 13.5,5.64 11.3,7.2 9.25,9.15 7.27,11.1 5.68,13.4 4.59,15.9 3.5,18.4 3,21.2 3,24 3,26.9 3.5,29.8 4.59,32.3 5.68,34.8 7.17,37.2 9.25,39 11.3,41 13.5,42.4 16.2,43.5 18.8,44.4 21.6,45 24.5,45 26.9,45 29.3,44.5 31.6,43.8 33.9,43 36.1,41.9 38.1,40.2 L 35.6,36.6 C 34.1,37.8 32.5,38.8 30.3,39.5 28.4,40.2 26.4,40.6 24.5,40.6 22.1,40.6 19.9,40.2 17.8,39.4 15.8,38.7 14,37.4 12.4,35.9 10.8,34.4 9.55,32.6 8.76,30.5 7.86,28.5 7.46,26.3 7.46,24 7.46,21.2 8.07,18.5 9.36,16.2 10.8,13.7 12.5,11.7 14.9,10.2 16.3,9.24 17.9,8.57 19.5,8.18 21.3,7.69 22.9,7.4 24.8,7.4 27.5,7.4 29.9,7.88 32.2,8.95 34.5,9.91 36.3,11.4 37.8,13.4 38.7,14.5 39.5,15.7 39.9,17.1 40.3,18.4 40.6,19.9 40.6,21.4 40.6,23.9 40,26 38.9,27.5 37.8,29 36.3,30 34.3,30.3 V 14.1 H 29.3 V 17.2 C 28.9,16.2 28,15.1 27,14.5 25.9,14 24.7,13.6 23.3,13.6 20.5,13.6 18.4,14.7 16.7,16.5 14.9,18.5 14.1,21.1 14.1,24.2 14.1,27.3 14.9,29.8 16.6,31.7 18.4,33.7 20.5,34.6 23.3,34.6 24.7,34.6 25.9,34.4 27,33.8 28,33.1 28.9,32.2 29.3,31.1 V 34.7 H 30.2 C 34.9,34.7 38.6,33.6 41.1,31.2 43.7,28.9 45,25.6 45,21.4 45,19.3 44.7,17.6 44.1,15.8 43.5,14 42.7,12.2 41.5,10.8 39.5,8.27 37.1,6.31 34.2,5.04 31.3,3.68 28,3 24.5,3 Z M 24.2,17.9 C 25.6,17.9 26.7,18.5 27.5,19.6 28.4,20.6 28.9,22.2 28.9,24.1 28.9,26.1 28.4,27.5 27.5,28.8 26.7,29.8 25.7,30.3 24.3,30.3 22.7,30.3 21.7,29.8 20.7,28.8 20,27.5 19.5,26.1 19.5,24.1 19.5,22.2 20,20.6 20.7,19.6 21.7,18.5 22.7,17.9 24.2,17.9 Z" />
  </g>
</svg>
