<?xml version="1.0" encoding="UTF-8"?>
<svg xmlns="http://www.w3.org/2000/svg" height="16" width="16" viewBox="0 0 48 48">
  <g>
    <rect x="0" y="0" width="48" height="48" rx="3" ry="3" style="fill:#924565;"/>
    <path style="opacity:0.25;fill:#000000;" d="M 18.4,48 11,40.6 9,33 3.6,27.6 27.6,3.6 33,9 40.7,11 48,18.3 V 45 C 48,46.7 46.7,48 45,48 Z"/>
    <path style="fill:#ffffff;" d="M 21.62,3 C 20.72,3 20.11,3.651 20.01,4.438 L 19.49,8.88 C 18.46,9.184 17.48,9.604 16.53,10.11 L 13.02,7.326 C 12.41,6.832 11.5,6.822 10.88,7.452 L 7.53,10.79 C 6.901,11.42 6.934,12.31 7.411,12.94 L 10.1,16.54 C 9.111,18.84 8.88,19.47 8.88,19.46 L 4.438,19.98 C 3.648,20.06 3,20.7 3,21.58 V 26.31 C 3,27.21 3.651,27.82 4.438,27.93 L 8.901,28.56 C 9.206,29.6 9.627,30.57 10.12,31.49 L 7.364,34.98 C 6.871,35.59 6.856,36.5 7.485,37.12 L 10.83,40.47 C 11.47,41.1 12.34,41.06 12.99,40.59 L 16.56,37.92 C 17.49,38.4 18.47,38.81 19.49,39.12 L 20.01,43.56 C 20.11,44.36 20.72,45 21.62,45 H 26.35 C 27.25,45 27.85,44.36 27.96,43.56 L 28.6,39.1 C 29.6,38.79 30.55,38.39 31.46,37.92 L 35.08,40.6 C 35.7,41.1 36.6,41.13 37.23,40.49 L 40.59,37.14 C 41.21,36.52 41.18,35.61 40.7,34.99 L 37.91,31.47 C 38.39,30.55 38.79,29.58 39.11,28.56 L 43.56,27.93 C 44.36,27.82 45,27.2 45,26.31 V 21.58 C 45,20.7 44.36,20.07 43.56,19.98 L 39.11,19.46 C 38.8,18.46 38.4,17.49 37.93,16.58 L 40.64,12.92 C 41.13,12.29 41.15,11.4 40.53,10.77 L 37.18,7.42 C 36.54,6.79 35.66,6.812 35.02,7.305 L 31.49,10.12 C 30.57,9.626 29.61,9.216 28.6,8.912 L 27.96,4.438 C 27.85,3.651 27.25,3 26.35,3 Z M 24,17.38 C 27.66,17.38 30.63,20.34 30.63,24 30.63,27.66 27.66,30.63 24,30.63 20.34,30.63 17.38,27.66 17.38,24 17.38,20.34 20.34,17.38 24,17.38" />
  </g>
</svg>
