<?xml version="1.0" encoding="UTF-8"?>
<svg xmlns="http://www.w3.org/2000/svg" height="16" width="16" viewBox="0 0 48 48">
  <g>
    <path d="M 2.438,0 C 1.087,0 0,1.088 0,2.438 V 45.56 C 0,46.91 1.087,48 2.438,48 H 45.56 C 46.91,48 48,46.91 48,45.56 V 2.438 C 48,1.088 46.91,0 45.56,0 Z" style="fill:#0078ad;fill-opacity:1;" />
    <path style="opacity:0.25;fill:#000000;" d="M 24,3 11.1,45 14.1,48 H 45.58 C 46.93,48 48,46.9 48,45.53 V 22.2 L 45,19.2 39,18 Z"/>
    <path style="fill:#ffffff;" d="M 45,19.05 C 45.09,19.34 36.05,30.02 35.96,30.3 35.86,30.57 37.21,44.81 36.97,45 36.76,45.15 24.28,39.43 24,39.43 23.73,39.43 11.25,45.16 11.03,45 10.79,44.81 12.11,30.57 12.02,30.3 11.94,30.02 2.911,19.34 3.001,19.05 3.087,18.77 16.37,15.69 16.6,15.53 16.82,15.35 23.72,3 24,3 24.28,3 31.18,15.35 31.4,15.53 31.63,15.69 44.88,18.75 45,19.05" />
  </g>
</svg>
