<?xml version="1.0" encoding="UTF-8"?>
<svg xmlns="http://www.w3.org/2000/svg" height="16" width="16" viewBox="0 0 48 48">
  <g>
    <path d="M 2.438,0 C 1.087,0 0,1.088 0,2.438 V 45.56 C 0,46.91 1.087,48 2.438,48 H 45.56 C 46.91,48 48,46.91 48,45.56 V 2.438 C 48,1.088 46.91,0 45.56,0 Z" style="fill:#0078ad;fill-opacity:1;" />
    <path style="opacity:0.25;fill:#000000;" d="M 38,8 C 28.9,6.6 19.5,3.34 12,10 5.05,18.2 4.21,27.7 8,38 L 18,48 H 45.5 C 47,47.9 47.9,47 48,45.5 V 18"/>
    <path style="fill:#ffffff;" d="M 24,3 C 12.3,3 3,12.3 3,24.1 3,35.7 12.3,45 24,45 35.7,45 45,35.7 45,24.1 45,12.3 35.7,3 24,3 Z M 24,39.9 C 15.3,39.9 8.1,32.7 8.1,24.1 8.1,15.3 15.3,8.1 24,8.1 32.7,8.1 39.9,15.3 39.9,24.1 39.9,32.7 32.7,39.9 24,39.9 Z M 31.5,21 H 27 V 15 C 27,13.2 25.8,12 24,12 22.2,12 21,13.2 21,15 V 24.1 C 21,25.8 22.2,27 24,27 H 31.5 C 33.3,27 34.5,25.8 34.5,24.1 34.5,22.2 33.3,21 31.5,21 Z" />
  </g>
</svg>
