<?xml version="1.0" encoding="UTF-8"?>
<svg xmlns="http://www.w3.org/2000/svg" height="16" width="16" viewBox="0 0 48 48">
  <g>
    <path d="M 2.438,0 C 1.087,0 0,1.088 0,2.438 V 45.56 C 0,46.91 1.087,48 2.438,48 H 45.56 C 46.91,48 48,46.91 48,45.56 V 2.438 C 48,1.088 46.91,0 45.56,0 Z" style="fill:#0078ad;fill-opacity:1;" />
    <path style="opacity:0.25;fill:#000000;" d="M 15.1,8.4 10.1,17.2 3.1,23.8 9.5,30.2 9.1,44.9 12.2,48 H 45.5 C 47,47.9 47.9,47 48,45.5 V 26.2 L 44.9,23.1 16.8,10.1 Z"/>
    <path style="fill:#ffffff;stroke:#ffffff;stroke-width:1;stroke-linejoin:round" d="M 23.9,3.5 14.2,13 V 9.29 H 14.5 C 14.6,9.29 14.7,9.21 14.7,9.11 V 8.75 C 14.7,8.65 14.6,8.56 14.5,8.56 H 9.71 9.67 V 8.56 C 9.59,8.57 9.52,8.66 9.52,8.75 V 9.11 C 9.52,9.21 9.6,9.29 9.71,9.29 H 10 V 17.1 L 3.5,23.4 H 9.5 V 44.5 H 18.6 V 34.4 33.8 C 18.6,32.7 19.4,31.9 20.4,31.9 H 27.6 C 28.6,31.9 29.4,32.7 29.4,33.8 V 34.4 44.5 H 38.5 V 23.4 H 44.5 L 34.3,13.4 Z" />
  </g>
</svg>
