<svg xmlns="http://www.w3.org/2000/svg" width="16" height="16" viewBox="0 0 16 16">
<path style="fill:context-fill #e31b5d;fill-opacity:context-fill-opacity;" d="M6 0c-.554 0-1 .446-1 1v1H.5a.499.499 0 1 0 0 1h.498l.547 11.061c.061 1.016.906 1.94 1.998 1.94h7.914c1.092 0 1.937-.924 1.998-1.94L14.002 3h.498a.499.499 0 1 0 0-1H10V1c0-.554-.446-1-1-1zm0 1h3v1H6zM2 3h11l-.543 11c-.033.553-.446 1-1 1H3.543c-.554 0-.967-.447-1-1zm2.5 2c-.277 0-.5.223-.5.5v7a.499.499 0 1 0 1 0v-7c0-.277-.223-.5-.5-.5m3 0c-.277 0-.5.223-.5.5v7a.499.499 0 1 0 1 0v-7c0-.277-.223-.5-.5-.5m3 0c-.277 0-.5.223-.5.5v7a.499.499 0 1 0 1 0v-7c0-.277-.223-.5-.5-.5"/>
</svg>
